<svg height="350.30075" viewBox="184.416 298 383.99998 262.72556" width="511.99997" xmlns="http://www.w3.org/2000/svg">
  <g stroke="#333" stroke-linecap="square" stroke-linejoin="round" stroke-miterlimit="3" stroke-width="6.364" transform="matrix(1.4716421 0 0 1.4716421 -86.97835 -177.03111)">
    <path d="m187.598 464.852v-72.912c0-4.917 3.457-10.906 7.716-13.365l88.6-51.153c3.042-1.756 7.981-1.756 11.023 0l37.686 21.758c4.259 2.459 7.716 8.448 7.716 13.365v72.911c0 3.513-2.469 7.791-5.511 9.547l-88.6 51.153c-4.259 2.459-11.174 2.459-15.433 0l-37.686-21.758c-3.042-1.756-5.511-6.034-5.511-9.546z" fill="#333" />
    <g fill="#37c871">
      <path d="m187.598 395.759v69.093c0 3.512 2.469 7.79 5.511 9.546l34.379 19.849c6.084 3.512 11.023.661 11.023-6.365v-69.092c0-3.513-2.469-7.79-5.511-9.547l-34.379-19.848c-6.084-3.513-11.023-.661-11.023 6.364z" />
      <path d="m340.339 366.364v69.092c0 3.513-2.469 7.79-5.511 9.547l-85.293 49.244c-6.084 3.512-11.024.661-11.024-6.365v-69.092c0-3.513 2.47-7.79 5.512-9.547l85.293-49.244c6.084-3.512 11.023-.66 11.023 6.365z" />
      <path d="m329.316 347.271-34.379-19.849c-3.042-1.756-7.981-1.756-11.023 0l-85.293 49.244c-6.084 3.513-6.084 9.216 0 12.729l34.379 19.848c3.042 1.757 7.981 1.757 11.023 0l85.293-49.244c6.084-3.512 6.084-9.215 0-12.728z" />
    </g>
    <path d="m289.425 464.852v-72.912c0-4.917 3.458-10.906 7.717-13.365l88.6-51.153c3.041-1.756 7.981-1.756 11.023 0l37.686 21.758c4.258 2.459 7.716 8.448 7.716 13.365v72.911c0 3.513-2.47 7.791-5.512 9.547l-88.6 51.153c-4.258 2.459-11.173 2.459-15.432 0l-37.686-21.758c-3.042-1.756-5.512-6.034-5.512-9.546z" fill="#333" />
    <g fill="#ddd">
      <path d="m289.425 395.759v69.093c0 3.512 2.47 7.79 5.512 9.546l34.379 19.849c6.084 3.512 11.023.661 11.023-6.365v-69.092c0-3.513-2.469-7.79-5.511-9.547l-34.379-19.848c-6.084-3.513-11.024-.661-11.024 6.364z" />
      <path d="m442.167 366.364v69.092c0 3.513-2.47 7.79-5.512 9.547l-85.293 49.244c-6.083 3.512-11.023.661-11.023-6.365v-69.092c0-3.513 2.47-7.79 5.512-9.547l85.293-49.244c6.084-3.512 11.023-.66 11.023 6.365z" />
      <path d="m431.144 347.271-34.379-19.849c-3.042-1.756-7.982-1.756-11.023 0l-85.293 49.244c-6.084 3.513-6.084 9.216 0 12.729l34.379 19.848c3.042 1.757 7.981 1.757 11.023 0l85.293-49.244c6.084-3.512 6.084-9.215 0-12.728z" />
    </g>
  </g>
</svg>
