<svg height="40" viewBox="240.329 322.923 130.13192 30" width="173.50923" xmlns="http://www.w3.org/2000/svg">
  <path d="m302.29306 343.26591q-.22229 0-.38907-.16677-.16676-.16676-.16676-.38907v-14.42965q0-.24453.15556-.41131.15572-.16676.40027-.16676h6.87007q2.82367 0 4.20214 1.15616 1.37846 1.15616 1.37846 3.29052 0 1.06735-.56687 1.84549-.56705.77813-1.25619 1.13391.91162.4001 1.53402 1.32294.62259.92265.62259 2.07882 0 2.24559-1.4785 3.49056-1.47849 1.24516-4.23541 1.24516zm3.62406-9.40488h2.77917q.82262 0 1.26722-.4446.44478-.44477.44478-1.15617 0-.68932-.43356-1.12269-.43356-.43356-1.27844-.43356h-2.77917zm0 6.40323h2.97923q.86711 0 1.34517-.50013.47806-.50031.47806-1.23394 0-.75608-.48927-1.25619-.48909-.50031-1.33396-.50031h-2.97923zm11.85034 3.00165q-.2223 0-.38907-.16677-.16678-.16676-.16678-.38907v-10.42755q0-.24455.15575-.41133.15555-.16676.4001-.16676h2.71261q.24455 0 .41131.16676.16677.16678.16677.41133v.84487q.6224-.68932 1.45624-1.05614.83366-.36682 1.85653-.36682h1.00043q.24454 0 .40027.15556.15555.15572.15555.40027v2.4234q0 .22247-.15555.38906-.15573.16676-.40027.16676h-2.24559q-.88938 0-1.36725.48928-.47806.4891-.47806 1.37847v5.60284q0 .24455-.16677.4001-.16677.15574-.41132.15574zm10.24976-13.16224q-.24455 0-.40029-.16677-.15555-.16677-.15555-.41132v-2.06778q0-.24454.16677-.41132.16677-.16676.38907-.16676h2.77918q.24454 0 .4113.16676.16678.16678.16678.41132v2.06778q0 .24455-.16678.41132-.16676.16677-.4113.16677zm0 13.16224q-.2223 0-.38907-.16677-.16677-.16676-.16677-.38907v-10.44981q0-.24455.16677-.40027.16677-.15556.38907-.15556h2.77918q.24454 0 .4113.15556.16678.15572.16678.40027v10.44981q0 .24455-.16678.4001-.16676.15574-.4113.15574zm11.27225.22229q-2.53445 0-4.10193-1.34518-1.56747-1.34517-1.67872-3.74632l-.0222-.88937.0222-.91163q.089-2.40114 1.6675-3.75736 1.5787-1.35621 4.11315-1.35621 1.93448 0 3.2462.68914 1.31173.68933 1.95655 1.63422.64483.94491.68914 1.72304.0222.24454-.15555.41132-.1778.16676-.42253.16676h-2.97923q-.24454 0-.37803-.11105-.13331-.11124-.24455-.35579-.24455-.62258-.63361-.91162-.38907-.28904-.98939-.28904-1.712 0-1.77875 2.26784l-.022.84487.022.73364q.0222 1.15617.46702 1.70096.4446.54463 1.31173.54463.64482 0 1.01164-.27782.36681-.27801.61136-.92266.11124-.24455.24455-.35579.13349-.11123.37803-.11123h2.97923q.22247 0 .40027.15572.17781.15556.17781.37786 0 .68932-.61136 1.65647-.61137.96715-1.94533 1.70079-1.33416.73381-3.3352.73381zm8.38202-.22229q-.24454 0-.41131-.15574-.16658-.15555-.16658-.4001v-14.67418q0-.24455.16658-.4001.16677-.15575.41131-.15575h2.71262q.24454 0 .4001.15575.15574.15555.15574.4001v7.42608l2.95697-3.37951q.0445-.0445.16677-.15574.12227-.11105.25576-.16676.13331-.0555.33335-.0555h3.13497q.20024 0 .34476.14452.14452.14452.14452.36683 0 .20005-.15575.35578l-3.91308 4.3132 4.46892 5.53628q.15573.20006.15573.33335 0 .22249-.14452.36701-.14452.14452-.36699.14452h-3.22378q-.28904 0-.43356-.089-.14452-.089-.34457-.28903l-3.3795-4.17989v4.00208q0 .22231-.15574.38907-.15556.16678-.4001.16678zm17.16433.22229q-1.82306 0-3.04597-.51133-1.22291-.51152-1.81203-1.22291-.58911-.71139-.58911-1.28947 0-.22249.16658-.36701.16678-.14452.36701-.14452h2.69018q.13349 0 .2223.089.37804.24454.42253.28904.42235.31128.78917.47805.367.16677.87834.16677.60032 0 .98939-.23351.38906-.23351.38906-.65586 0-.35579-.21126-.57808-.21127-.2223-.80038-.43356-.58912-.21127-1.78977-.43357-3.84636-.77813-3.84636-3.55731 0-.91162.58912-1.74528.58912-.83384 1.73424-1.34519 1.14496-.51133 2.74572-.51133 1.62319 0 2.81265.50012 1.18944.5003 1.81202 1.20067.62258.70035.62258 1.27843 0 .20005-.14452.35579-.14452.15556-.34476.15556h-2.44564q-.20005 0-.31128-.0889-.2668-.13348-.53359-.33354-.4001-.26679-.70036-.41131-.30008-.14452-.7671-.14452-.55584 0-.86694.24454-.31129.24454-.31129.62258 0 .33336.18883.54462.18902.21127.77831.41132.58912.20023 1.78978.42253 2.17885.37785 3.16825 1.345.9894.96715.9894 2.25679 0 1.66752-1.4785 2.65691-1.47867.98939-4.1466.98939z" fill="#333" stroke-width=".183869" />
  <g transform="matrix(.18386872 0 0 .18386872 194.97013 262.35246)">
    <g fill="#37c871">
      <path d="m250.03028 391.07903c-.75551-.076-1.30847.0792-1.69984.3051-.78274.45188-1.63882 1.60936-1.63882 4.376v69.09196c0 2.02006 2.17275 5.78047 3.92271 6.79064l34.38035 19.8489c2.39624 1.38324 3.82895 1.21885 4.61137.76711.78241-.45175 1.63882-1.6086 1.63882-4.376v-69.09195c0-2.0221-2.17164-5.77927-3.92271-6.79065l-34.38036-19.8489c-1.19806-.69178-2.15601-.99631-2.91152-1.07221z" />
      <path d="m22.912109 14.677734-9.199218 5.310547c-.392399.22664-.878907 1.068558-.878907 1.521485v15.480468c0 .620017.19181.879223.367188.980469.17538.101244.496324.138039 1.033203-.171875l8.728516-5.039062c-.0937-.299775-.148438-.611704-.148438-.929688v-16.335937c0-.273864.03943-.546265.09766-.816407z" stroke-width=".224056" transform="matrix(4.4631697 0 0 4.4631697 240.32812 322.78905)" />
      <path d="m345.34337 329.42278c-1.52274 0-3.04747.25316-3.92271.75839l-85.2971 49.24306c-2.39627 1.38364-2.97254 2.7053-2.97254 3.60889 0 .90337.57773 2.22561 2.97254 3.6089l34.38035 19.84018a3.1823181 3.1823181 0 0 0 0 .009c1.75029 1.01094 6.09513 1.01094 7.84542 0l85.28838-49.24326c2.39614-1.38317 2.97254-2.70551 2.97254-3.60889 0-.90339-.57626-2.22524-2.97254-3.60889l-34.38035-19.84891c-.87525-.50523-2.39125-.75839-3.91399-.75839z" />
    </g>
    <path d="m351.86378 391.07903c-.75531-.0759-1.30853.0792-1.69984.3051-.78264.45184-1.63882 1.60936-1.63882 4.376v69.09196c0 2.02006 2.16402 5.78047 3.91399 6.79064l34.38035 19.8489c2.39625 1.38324 3.82894 1.21885 4.61136.76711.78242-.45175 1.63882-1.6086 1.63882-4.376v-69.09195c0-2.02149-2.17226-5.7793-3.92271-6.79065l-34.37163-19.8489c-1.19776-.69172-2.15621-.99631-2.91152-1.07221z" fill="#ddd" />
    <path d="m491.55576 361.68488c-.75542.0759-1.71346.38061-2.91152 1.0722l-85.28839 49.24306c-1.75132 1.01153-3.9227 4.76916-3.9227 6.79065v69.09195c0 2.7674.8564 3.92425 1.63882 4.376.78242.45174 2.21511.61613 4.61136-.76711l85.2971-49.24305c1.75134-1.01155 3.91399-4.76917 3.91399-6.79064v-69.09197c0-2.76679-.85625-3.92411-1.63882-4.37599-.39129-.22599-.94442-.381-1.69984-.3051z" fill="#ddd" />
    <path d="m447.16814 329.42278c-1.52305 0-3.0476.25324-3.92271.75839l-85.28838 49.24306c-2.39574 1.38357-2.97254 2.70508-2.97254 3.60889 0 .90382.5768 2.22532 2.97254 3.6089l34.37164 19.84018a3.1823181 3.1823181 0 0 0 .009.009c1.74851 1.01023 6.08666 1.0108 7.8367 0l85.28817-49.24326c2.39613-1.38317 2.98126-2.70551 2.98126-3.60889 0-.90339-.58498-2.22524-2.98126-3.60889l-34.37163-19.84891c-.87511-.50515-2.39966-.75839-3.92271-.75839z" fill="#ddd" />
  </g>
</svg>
