<svg height="40" viewBox="240.329 322.923 120 30" width="160" xmlns="http://www.w3.org/2000/svg">
  <path d="m298.02877 342.62961q-.20316 0-.35558-.15241-.15241-.15241-.15241-.35558v-13.1876q0-.22349.14217-.37591.14232-.15241.36582-.15241h6.27872q2.58062 0 3.84044 1.05665 1.2598 1.05664 1.2598 3.00728 0 .97548-.51807 1.68664-.51824.71115-1.14806 1.03631.83315.36566 1.40197 1.20906.569.84323.569 1.89989 0 2.05229-1.35123 3.1901-1.35123 1.13798-3.87085 1.13798zm3.31211-8.59534h2.53995q.75182 0 1.15815-.40633.40649-.40649.40649-1.05665 0-.62999-.39624-1.02606-.39624-.39624-1.1684-.39624h-2.53995zm0 5.85206h2.72279q.79248 0 1.22939-.45708.43691-.45724.43691-1.12772 0-.691-.44716-1.14807-.44699-.45724-1.21914-.45724h-2.72279zm10.83031 2.74328q-.20316 0-.35558-.15241-.15242-.15241-.15242-.35558v-9.52999q0-.2235.14234-.37592.14216-.15241.36566-.15241h2.47912q.2235 0 .37591.15241.15241.15242.15241.37592v.77215q.56883-.62999 1.3309-.96523.7619-.33525 1.69672-.33525h.91432q.22349 0 .36582.14217.14216.14232.14216.36582v2.2148q0 .20332-.14216.35557-.14233.15241-.36582.15241h-2.0523q-.81282 0-1.24956.44716-.43691.447-.43691 1.25982v5.12057q0 .2235-.15242.36566-.15241.14233-.37591.14233zm9.3675-12.02928q-.2235 0-.36583-.15242-.14216-.15241-.14216-.37591v-1.8898q0-.22349.15241-.37591.15242-.15241.35558-.15241h2.53996q.22349 0 .3759.15241.15242.15242.15242.37591v1.8898q0 .2235-.15242.37591-.15241.15242-.3759.15242zm0 12.02928q-.20316 0-.35558-.15241-.15241-.15241-.15241-.35558v-9.55033q0-.2235.15241-.36582.15242-.14217.35558-.14217h2.53996q.22349 0 .3759.14217.15242.14232.15242.36582v9.55033q0 .2235-.15242.36566-.15241.14233-.3759.14233zm10.30198.20316q-2.31629 0-3.74885-1.22939-1.43255-1.22939-1.53422-3.42385l-.0203-.81282.0203-.83316q.0813-2.19446 1.52397-3.43394 1.44281-1.23947 3.7591-1.23947 1.76797 0 2.96678.62982 1.19882.62999 1.78814 1.49355.58932.86358.62982 1.57473.0203.22349-.14216.37591-.1625.15241-.38616.15241h-2.72279q-.22349 0-.34549-.10149-.12184-.10167-.2235-.32517-.2235-.56899-.57907-.83315-.35558-.26416-.90423-.26416-1.56464 0-1.62564 2.07263l-.0201.77215.0201.67049q.0203 1.05665.42682 1.55455.40633.49775 1.19882.49775.58932 0 .92456-.25391.33524-.25408.55874-.84324.10166-.2235.2235-.32516.122-.10166.34549-.10166h2.72279q.20332 0 .36582.14232.1625.14217.1625.34533 0 .62999-.55874 1.51389-.55874.8839-1.77788 1.55439-1.21932.67065-3.04812.67065zm7.66053-.20316q-.22349 0-.37591-.14233-.15224-.14216-.15224-.36566v-13.41109q0-.2235.15224-.36566.15242-.14234.37591-.14234h2.47913q.22349 0 .36566.14234.14233.14216.14233.36566v6.78688l2.70245-3.08862q.0407-.0407.15241-.14233.11175-.10149.23375-.15241.12183-.0507.30466-.0507h2.86512q.183 0 .31508.13208.13208.13208.13208.33525 0 .18283-.14234.32516l-3.57626 3.94193 4.08426 5.05974q.14232.18284.14232.30466 0 .20334-.13208.33542-.13208.13208-.3354.13208h-2.94629q-.26416 0-.39624-.0813-.13208-.0813-.31491-.26416l-3.08861-3.8201v3.6576q0 .20317-.14233.35558-.14217.15242-.36566.15242zm15.68689.20316q-1.66614 0-2.78378-.46732-1.11765-.46749-1.65606-1.11764-.5384-.65016-.5384-1.17848 0-.20334.15224-.33542.15242-.13208.33542-.13208h2.45862q.122 0 .20316.0813.3455.22349.38616.26416.386.28449.72124.4369.33541.15242.80274.15242.54865 0 .90423-.21341.35557-.21341.35557-.59941 0-.32516-.19308-.52832-.19308-.20316-.73148-.39624-.53841-.19308-1.63572-.39625-3.51528-.71115-3.51528-3.25111 0-.83315.53841-1.59505.53841-.76207 1.58497-1.2294 1.0464-.46732 2.50938-.46732 1.48347 0 2.57054.45707 1.08706.45724 1.65605 1.09732.56899.64007.56899 1.16839 0 .18283-.13208.32516-.13208.14217-.31508.14217h-2.23513q-.18283 0-.28449-.0812-.24383-.12199-.48766-.30483-.36566-.24382-.64007-.3759-.27425-.13208-.70107-.13208-.508 0-.79232.22349-.2845.22349-.2845.56899 0 .30466.17258.49774.17275.19308.71132.37591.53841.183 1.63572.38616 1.9913.34533 2.89554 1.22923.90423.8839.90423 2.06254 0 1.52398-1.35123 2.42821-1.35139.90423-3.78968.90423z" fill="#ddd" stroke-width=".168042" />
  <g transform="matrix(.16804201 0 0 .16804201 199.94378 268.68088)">
    <g fill="#333">
      <path d="m243.511 464.852v-72.912c0-4.917 3.458-10.906 7.717-13.365l88.6-51.153c3.042-1.756 7.981-1.756 11.023 0l37.686 21.758c4.259 2.459 7.716 8.448 7.716 13.365v72.911c0 3.513-2.47 7.791-5.511 9.547l-88.6 51.153c-4.259 2.459-11.174 2.459-15.433 0l-37.686-21.758c-3.042-1.756-5.512-6.034-5.512-9.546z" />
      <path d="m345.33984 322.79102c-2.46776 0-4.93675.62423-7.10351 1.875l-88.59961 51.15234c-5.5506 3.20472-9.3086 9.71221-9.3086 16.12109v72.91211c0 5.00394 2.76948 9.80091 7.10352 12.30274l37.68555 21.75781c5.5506 3.20472 13.06463 3.20472 18.61523 0l88.59961-51.1543a3.1823181 3.1823181 0 0 0 .002 0c4.33294-2.50201 7.10157-7.29822 7.10157-12.30273v-72.91016c0-6.40845-3.75586-12.91626-9.30664-16.12109l-37.6875-21.75781c-2.16676-1.25077-4.6338-1.875-7.10157-1.875zm0 6.6289c1.52274 0 3.04469.25258 3.91993.75781l37.68554 21.75782c2.96722 1.71317 6.125 7.18382 6.125 10.60937v72.91016c0 2.02148-2.17085 5.78298-3.91992 6.79297l-88.59961 51.15234c-2.9674 1.71328-9.2826 1.71328-12.25 0l-37.6875-21.75781c-1.74996-1.01017-3.91992-4.77096-3.91992-6.79102v-72.91211c0-3.42512 3.15759-8.89609 6.125-10.60937l88.59961-51.15235c.87524-.50523 2.39914-.75781 3.92187-.75781z" />
    </g>
    <g>
      <path d="m243.511 395.759v69.093c0 3.512 2.47 7.79 5.512 9.546l34.379 19.849c6.084 3.512 11.023.661 11.023-6.365v-69.092c0-3.513-2.469-7.79-5.511-9.547l-34.379-19.848c-6.084-3.513-11.024-.661-11.024 6.364z" fill="#37c871" />
      <path d="m250.45898 384.76172c-1.88186-.15781-3.70446.18136-5.30859 1.10742-3.20825 1.85212-4.82227 5.63226-4.82227 9.89063v69.09179c0 5.00394 2.76948 9.80091 7.10352 12.30274l34.37891 19.84765c3.68775 2.12877 7.76652 2.62179 10.97461.76953 3.20808-1.85225 4.82226-5.63006 4.82226-9.88867v-69.09375c0-5.00391-2.76863-9.79816-7.10156-12.30078a3.1823181 3.1823181 0 0 0 0-.002l-34.37891-19.84766h-.002c-1.84347-1.06418-3.78469-1.71919-5.66602-1.87695zm-.42578 6.3164c.75551.0759 1.7121.38049 2.91016 1.07227l34.37891 19.84766c1.75107 1.01138 3.91992 4.76892 3.91992 6.79101v69.09375c0 2.7674-.85626 3.92521-1.63867 4.37696-.78242.45174-2.21509.6137-4.61133-.76954v.002l-34.37891-19.84961c-1.74996-1.01017-3.91992-4.77096-3.91992-6.79102v-69.09179c0-2.76664.85593-3.92703 1.63867-4.37891.39137-.22594.94566-.37868 1.70117-.30274z" fill="#333" />
    </g>
    <g>
      <path d="m396.253 366.364v69.092c0 3.513-2.47 7.79-5.511 9.547l-85.293 49.244c-6.084 3.512-11.024.661-11.024-6.365v-69.092c0-3.513 2.47-7.79 5.512-9.547l85.293-49.244c6.084-3.512 11.023-.66 11.023 6.365z" fill="#37c871" />
      <path d="m389.30664 355.36523c-1.88177.15761-3.82403.8145-5.66797 1.87891l-85.29297 49.24414c-4.33266 2.50246-7.10351 7.29627-7.10351 12.30078v69.09375c0 4.25876 1.61401 8.03655 4.82226 9.88867 3.20826 1.85213 7.28679 1.35927 10.97461-.76953l85.29297-49.24414a3.1823181 3.1823181 0 0 0 .002 0c4.33156-2.50264 7.10157-7.29822 7.10157-12.30273v-69.0918c0-4.25821-1.61434-8.0363-4.82227-9.88867-1.60396-.92618-3.42487-1.26698-5.30664-1.10938zm.42383 6.31641c.75542-.0759 1.30989.0787 1.70117.30469.78257.45188 1.63867 1.61016 1.63867 4.37695v69.0918c0 2.02148-2.16948 5.78161-3.91992 6.79297l-85.29297 49.24414v-.002c-2.39618 1.3832-3.82858 1.22141-4.61133.76954-.78274-.45188-1.63867-1.60972-1.63867-4.37696v-69.09375c0-2.02148 2.17054-5.77948 3.92188-6.79101l85.29101-49.24414c1.19807-.69159 2.15474-.99641 2.91016-1.07227z" fill="#333" />
    </g>
    <g>
      <path d="m385.23 347.271-34.379-19.849c-3.042-1.756-7.981-1.756-11.023 0l-85.293 49.244c-6.084 3.513-6.084 9.216 0 12.729l34.379 19.848c3.042 1.757 7.981 1.757 11.023 0l85.293-49.244c6.084-3.512 6.084-9.215 0-12.728z" fill="#37c871" />
      <path d="m345.33984 322.79102c-2.46776 0-4.93675.62423-7.10351 1.875l-85.29297 49.24414c-3.68773 2.12935-6.1543 5.41668-6.1543 9.12109s2.46657 6.98979 6.1543 9.11914l34.37891 19.84766c4.3337 2.50306 9.87332 2.50306 14.20703 0l85.29101-49.24414c3.68787-2.12883 6.1543-5.41478 6.1543-9.11914 0-3.70437-2.46657-6.98979-6.1543-9.11915l-34.3789-19.8496c-2.16676-1.25077-4.6338-1.875-7.10157-1.875zm0 6.6289c1.52274 0 3.04469.25258 3.91993.75781l34.3789 19.84961c2.39628 1.38365 2.97266 2.70404 2.97266 3.60743 0 .90338-.57652 2.2262-2.97266 3.60937l-85.29297 49.24414c-1.75029 1.01094-6.08955 1.01094-7.83984 0a3.1823181 3.1823181 0 0 0 0-.002l-34.37891-19.84766h-.002c-2.39481-1.38328-2.9707-2.70405-2.9707-3.60742 0-.90359.57638-2.22573 2.97265-3.60937l85.29102-49.24415c.87524-.50523 2.39914-.75781 3.92187-.75781z" fill="#333" />
    </g>
    <g fill="#333">
      <path d="m345.339 464.852v-72.912c0-4.917 3.458-10.906 7.716-13.365l88.6-51.153c3.042-1.756 7.982-1.756 11.024 0l37.686 21.758c4.258 2.459 7.716 8.448 7.716 13.365v72.911c0 3.513-2.47 7.791-5.512 9.547l-88.6 51.153c-4.258 2.459-11.173 2.459-15.432 0l-37.686-21.758c-3.042-1.756-5.512-6.034-5.512-9.546z" />
      <path d="m447.16797 322.78906c-2.46795 0-4.93663.62611-7.10352 1.87696l-88.59961 51.15234a3.1823181 3.1823181 0 0 0 -.002.002c-5.54952 3.20486-9.30664 9.71026-9.30664 16.11914v72.91211c0 5.00394 2.76948 9.80091 7.10352 12.30274l37.68554 21.75781c5.5506 3.20472 13.06526 3.20512 18.61524 0l88.59961-51.1543v.002c4.33403-2.50184 7.10351-7.30018 7.10351-12.30469v-72.91016c0-6.40888-3.75712-12.91624-9.30664-16.12109a3.1823181 3.1823181 0 0 0 -.002 0l-37.68555-21.75781c-2.16689-1.25085-4.63361-1.87696-7.10156-1.87696zm0 6.63086c1.52305 0 3.04481.25266 3.91992.75781l37.68555 21.75782c2.96648 1.71314 6.125 7.18425 6.125 10.60937v72.91016c0 2.02148-2.16996 5.7828-3.91992 6.79297l-88.59961 51.15234a3.1823181 3.1823181 0 0 0 -.002 0c-2.96602 1.71288-9.28064 1.71328-12.24804 0l-37.6875-21.75781c-1.74997-1.01017-3.91993-4.77096-3.91993-6.79102v-72.91211c0-3.42512 3.15852-8.89623 6.125-10.60937l88.59961-51.15235c.87511-.50515 2.39883-.75781 3.92188-.75781z" />
    </g>
    <g>
      <path d="m345.339 395.759v69.093c0 3.512 2.47 7.79 5.512 9.546l34.379 19.849c6.084 3.512 11.023.661 11.023-6.365v-69.092c0-3.513-2.47-7.79-5.511-9.547l-34.38-19.848c-6.083-3.513-11.023-.661-11.023 6.364z" fill="#ddd" />
      <path d="m352.28516 384.76172c-1.88179-.15782-3.70259.18134-5.30664 1.10742-3.20812 1.85216-4.82227 5.63226-4.82227 9.89063v69.09179c0 5.00394 2.76948 9.80091 7.10352 12.30274l34.3789 19.84765c3.68776 2.12877 7.76653 2.62179 10.97461.76953 3.20808-1.85225 4.82227-5.63006 4.82227-9.88867v-69.09375c0-5.00451-2.77001-9.79813-7.10157-12.30078a3.1823181 3.1823181 0 0 0 -.002-.002l-34.37891-19.84766c-1.84373-1.06477-3.78618-1.71914-5.66796-1.87695zm-.42383 6.3164c.75531.0759 1.71239.38055 2.91015 1.07227l34.37891 19.84766c1.75044 1.01135 3.91992 4.76953 3.91992 6.79101v69.09375c0 2.7674-.85625 3.92521-1.63867 4.37696-.78242.45174-2.21508.6137-4.61133-.76954v.002l-34.3789-19.84961c-1.74997-1.01017-3.91993-4.77096-3.91993-6.79102v-69.09179c0-2.76664.85604-3.92707 1.63868-4.37891.39131-.22592.94586-.37867 1.70117-.30274z" fill="#333" />
    </g>
    <g>
      <path d="m498.081 366.364v69.092c0 3.513-2.47 7.79-5.512 9.547l-85.293 49.244c-6.084 3.512-11.023.661-11.023-6.365v-69.092c0-3.513 2.47-7.79 5.512-9.547l85.293-49.244c6.084-3.512 11.023-.66 11.023 6.365z" fill="#ddd" />
      <path d="m491.13477 355.36523c-1.88177.15761-3.82404.8145-5.66797 1.87891l-85.29297 49.24414c-4.33267 2.50246-7.10352 7.29627-7.10352 12.30078v69.09375c0 4.25861 1.61419 8.03642 4.82227 9.88867 3.20808 1.85226 7.28685 1.35924 10.97461-.76953l85.29297-49.24414c4.33266-2.50246 7.10351-7.29822 7.10351-12.30273v-69.0918c0-4.25821-1.61433-8.0363-4.82226-9.88867-1.60397-.92618-3.42488-1.26698-5.30664-1.10938zm.42382 6.31641c.75542-.0759 1.30989.0787 1.70118.30469.78257.45188 1.63867 1.61016 1.63867 4.37695v69.0918c0 2.02148-2.17054 5.78143-3.92188 6.79297l-85.29101 49.24414v-.002c-2.39625 1.38324-3.82891 1.22128-4.61133.76954-.78242-.45175-1.63867-1.60956-1.63867-4.37696v-69.09375c0-2.02148 2.17054-5.77948 3.92187-6.79101l85.29102-49.24414c1.19806-.69159 2.15473-.99641 2.91015-1.07227z" fill="#333" />
    </g>
    <g>
      <path d="m487.058 347.271-34.379-19.849c-3.042-1.756-7.982-1.756-11.024 0l-85.293 49.244c-6.083 3.513-6.083 9.216 0 12.729l34.38 19.848c3.041 1.757 7.981 1.757 11.023 0l85.293-49.244c6.084-3.512 6.084-9.215 0-12.728z" fill="#ddd" />
      <path d="m447.16797 322.78906c-2.46795 0-4.93663.62611-7.10352 1.87696l-85.29297 49.24414c-3.68725 2.12943-6.15429 5.41691-6.15429 9.12109s2.46704 6.98971 6.15429 9.11914l34.37891 19.84766c4.3335 2.50376 9.87307 2.50321 14.20703 0l85.29102-49.24414c3.68786-2.12883 6.15429-5.41478 6.15429-9.11914 0-3.70437-2.46657-6.98979-6.15429-9.11915l-34.37891-19.8496c-2.16689-1.25085-4.63361-1.87696-7.10156-1.87696zm0 6.63086c1.52305 0 3.04481.25266 3.91992.75781l34.37891 19.84961c2.39627 1.38365 2.97265 2.70404 2.97265 3.60743 0 .90338-.57652 2.2262-2.97265 3.60937l-85.29297 49.24414c-1.75004 1.01079-6.09134 1.01023-7.83985 0a3.1823181 3.1823181 0 0 0 -.002-.002l-34.37891-19.84766c-2.39574-1.38357-2.9707-2.7036-2.9707-3.60742s.57496-2.2258 2.9707-3.60937l85.29297-49.24415c.87511-.50515 2.39883-.75781 3.92188-.75781z" fill="#333" />
    </g>
  </g>
</svg>
